<svg xmlns="http://www.w3.org/2000/svg" viewBox="0 0 16.4 19.65"><defs><style>.cls-1{fill:#181618;}</style></defs><g id="Layer_2" data-name="Layer 2"><g id="Layer_1-2" data-name="Layer 1"><path class="cls-1" d="M3.89,1.32l-.08,0A8.08,8.08,0,0,1,7.71,0v1.6a.49.49,0,0,0,1,0V0a8.12,8.12,0,0,1,3.9,1.27l-.09,0-.19.07-.23.1-.18.1-.21.14-.15.12L11.35,2l-.13.14a1.37,1.37,0,0,0-.15.21L11,2.54a.83.83,0,0,1-.07.13A9.94,9.94,0,0,0,8.2,2.28a10,10,0,0,0-2.7.39.83.83,0,0,0-.07-.13s-.07-.1-.1-.16l-.15-.21L5.05,2l-.19-.18-.15-.12L4.5,1.59l-.18-.1-.23-.1ZM4.57,3a1.65,1.65,0,0,0-1.44-.83.37.37,0,0,1-.21-.06l0,0L2.8,2A8.25,8.25,0,0,0,0,7.39,7.73,7.73,0,0,1,4.57,3ZM0,13.88v.39A8.32,8.32,0,0,0,.77,15l.36.26.5.35L2,15.8c.18.1.36.21.54.3l.4.19a6.65,6.65,0,0,0,.61.27l.38.15.68.22L5,17l.73.17.37.07c.27,0,.53.08.8.11l.33,0c.38,0,.76.05,1.15.05s.7,0,1,0l.33,0c.24,0,.48,0,.71-.09l.38-.07.65-.14.37-.09.65-.21.32-.11q.39-.14.75-.3l.19-.08q.45-.21.87-.45l.29-.19a11.12,11.12,0,0,0,1.46-1.06v-.49a15.09,15.09,0,0,1-8,2.53A14.77,14.77,0,0,1,0,13.88ZM11.82,3a7.73,7.73,0,0,1,4.53,4.39A8.16,8.16,0,0,0,13.59,2l-.06,0,0,0a.43.43,0,0,1-.22.06A1.68,1.68,0,0,0,11.82,3Zm.43-1.31-.16.07-.21.14L11.75,2l-.2.19-.11.11-.15.21a1,1,0,0,0-.09.13.67.67,0,0,0-.06.12h0l.45.15a1.93,1.93,0,0,1,1.67-1,.28.28,0,0,0,.13,0h0a6.12,6.12,0,0,0-.5-.39h0a1.41,1.41,0,0,0-.22.06l-.18,0Zm-9.12.23a2,2,0,0,1,1.68,1l.45-.15h0L5.2,2.63l-.11-.15L5,2.29l-.13-.13L4.65,2s-.1-.07-.15-.11l-.2-.13-.15-.07-.24-.11-.16,0a2,2,0,0,0-.23-.06h0L3,1.87H3A.25.25,0,0,0,3.13,1.92ZM8.2,1.86a.24.24,0,0,0,.24-.24V0H8V1.62A.24.24,0,0,0,8.2,1.86ZM.78,16.07v1.29c1.58,1.54,4,2.29,7.42,2.29s5.57-.63,7.11-2V16.37c-1.79,1.52-4.31,2-7.11,2C5.23,18.33,2.57,17.76.78,16.07Zm12.56-1.32,0-.13a16.11,16.11,0,0,1-4.93.82,16.25,16.25,0,0,1-5.27-.92l0,.13L3,14.6A16.66,16.66,0,0,1,0,13.22v.36A14.61,14.61,0,0,0,8.38,16.4a15,15,0,0,0,8-2.57v-.41a17.8,17.8,0,0,1-2.93,1.28Zm-2.72-11,.12,0,.12,0h0l.44.11.13,0,.12,0a9.1,9.1,0,0,1,1.56.64l0-.14.16.09a7.31,7.31,0,0,1,2.49,2.07,7.88,7.88,0,0,0-4.07-3.45l-.12-.05-.11,0L11,3h0l-.13,0-.11,0h0A9.7,9.7,0,0,0,8.2,2.53a9.59,9.59,0,0,0-2.59.37h0l-.11,0L5.37,3h0l-.45.14-.12,0-.11.05A7.81,7.81,0,0,0,.62,6.68,7.13,7.13,0,0,1,3.11,4.6l.15-.09,0,.14A9.55,9.55,0,0,1,4.85,4L5,4l.14,0,.44-.11h0l.12,0,.12,0h0A11.21,11.21,0,0,1,8.2,3.49a11.05,11.05,0,0,1,2.41.27ZM3.37,9.1c0-.26,0-.51,0-.76a2.54,2.54,0,0,0-1.17,2,.49.49,0,1,1-1,0A3.69,3.69,0,0,1,3.3,7.2c0-.79-.12-1.56-.23-2.3C1.14,6,0,7.55,0,9.12v3.81a16.79,16.79,0,0,0,2.89,1.39A26.78,26.78,0,0,0,3.37,9.1Zm10-4.2A28.34,28.34,0,0,0,13,9.1a27.66,27.66,0,0,0,.49,5.32,17.29,17.29,0,0,0,2.88-1.28v-4C16.4,7.55,15.25,6,13.33,4.9ZM7.45,6.23a.21.21,0,0,0-.16.08.22.22,0,0,0,0,.17.23.23,0,0,0,.23.22h0a13.24,13.24,0,0,1,1.42-.07.24.24,0,0,0,0-.48A14.32,14.32,0,0,0,7.45,6.23Zm-1.84.31a8.94,8.94,0,0,0-2.06.8l-.11.07-.13.07a3.4,3.4,0,0,0-1.86,2.89.23.23,0,0,0,.23.24.24.24,0,0,0,.24-.24A2.86,2.86,0,0,1,3.33,8l.14-.1.1-.06A8.09,8.09,0,0,1,5.72,7a.24.24,0,0,0,.18-.28.25.25,0,0,0-.24-.18Z"/></g></g></svg>