<svg xmlns="http://www.w3.org/2000/svg" viewBox="0 0 20.72 16.41"><defs><style>.cls-1{fill:#181618;}</style></defs><g id="Layer_2" data-name="Layer 2"><g id="Layer_1-2" data-name="Layer 1"><path class="cls-1" d="M20.72,11.23H0a1.47,1.47,0,0,1,.07-.17c.67-1.22,1.35-2.43,2-3.65a.28.28,0,0,1,.27-.15h16a.28.28,0,0,1,.28.17l2,3.56.13.2Zm0,1.22H13.48c-.15,0-.23,0-.26.2s-.15.57-.2.86-.1.24-.28.23-.48,0-.73,0H8c-.15,0-.22,0-.25-.19s-.14-.57-.19-.86-.12-.23-.3-.23H0l.1.21c.66,1.19,1.33,2.39,2,3.59a.31.31,0,0,0,.32.18q8,0,15.92,0a.3.3,0,0,0,.31-.19c.65-1.19,1.31-2.37,2-3.55a1.13,1.13,0,0,1,.12-.18ZM12.49,5.28a2.74,2.74,0,0,0,0-2.45,2,2,0,0,1-.19-.42,1.47,1.47,0,0,1,.13-1.09A2.53,2.53,0,0,0,12.77,0H11.6a4.17,4.17,0,0,1-.22.68,2.79,2.79,0,0,0,0,2.69,1.34,1.34,0,0,1,.15.48,1.48,1.48,0,0,1-.21,1,2.18,2.18,0,0,0-.27,1.21h1.14A7.43,7.43,0,0,1,12.49,5.28Zm-3-.21a2.53,2.53,0,0,0-.06-2.15,1.76,1.76,0,0,1,0-1.8A1.94,1.94,0,0,0,9.66,0H8.53c-.12.31-.21.59-.33.87a2.54,2.54,0,0,0,0,2.31,1.69,1.69,0,0,1,0,1.75,2.26,2.26,0,0,0-.26,1.15H9.08C9.22,5.73,9.36,5.4,9.48,5.07Zm6,.33a2.75,2.75,0,0,0,0-2.68,1.7,1.7,0,0,1-.16-.48,1.54,1.54,0,0,1,.22-1A2.1,2.1,0,0,0,15.85,0H14.72c-.11.3-.2.58-.32.85a2.66,2.66,0,0,0,0,2.35,3,3,0,0,1,.2.49,1.39,1.39,0,0,1-.13,1.09,2.55,2.55,0,0,0-.34,1.3H15.3A6,6,0,0,1,15.52,5.4Zm-9.2-.17a2.7,2.7,0,0,0,0-2.34,3.33,3.33,0,0,1-.21-.48,1.5,1.5,0,0,1,.16-1.15A2.41,2.41,0,0,0,6.58,0H5.37a1.84,1.84,0,0,1,0,.35A1.24,1.24,0,0,1,5.2.67a2.75,2.75,0,0,0,0,2.72,1.73,1.73,0,0,1,.14.44,1.56,1.56,0,0,1-.21,1,2.17,2.17,0,0,0-.27,1.2H6C6.11,5.77,6.2,5.49,6.32,5.23Z"/></g></g></svg>