<svg xmlns="http://www.w3.org/2000/svg" viewBox="0 0 19.32 22.06"><defs><style>.cls-1{fill:#181618;}</style></defs><g id="Layer_2" data-name="Layer 2"><g id="Layer_1-2" data-name="Layer 1"><path class="cls-1" d="M5.71,12.62c1.89.47,3-.63,4.12-1.81,1.64-1.72,3.35-3.38,5-5.06.2-.2.43-.39.79-.73v5.05a11.62,11.62,0,0,1,2,0,2.86,2.86,0,0,1,1.35.66A.78.78,0,0,1,19,12q-4.74,4.7-9.45,9.43a3,3,0,0,1-.32.25C8.58,20.05,7.17,20,5.71,20.12ZM19.23.07A1.85,1.85,0,0,0,18.84,0c-2.65,0-5.31,0-8,0A1.55,1.55,0,0,0,10,.47C8,2.38,6.1,4.33,4.16,6.26L.47,9.89l.1.24H9.63C13.7,6.43,19,.86,19.23.07ZM8.64,10.76H0a1.64,1.64,0,0,0,1.62,1.29,5.57,5.57,0,0,0,1,0c.77-.1,1,.16,1,1,0,2.27,0,4.54,0,6.8,0,.27,0,.54-.06.89-.76,0-1.45-.05-2.13,0A1.37,1.37,0,0,0,.11,22.06H8.67C8,20.11,6.29,20.94,5.05,20.6V12.14C6.33,11.81,8,12.65,8.64,10.76ZM2.94,20V18.88L1.72,20Z"/></g></g></svg>