<svg xmlns="http://www.w3.org/2000/svg" viewBox="0 0 20.62 21.34"><defs><style>.cls-1{fill:#181618;}</style></defs><g id="Layer_2" data-name="Layer 2"><g id="Layer_1-2" data-name="Layer 1"><path class="cls-1" d="M5.22,21.34a1,1,0,0,1-.62-.55.89.89,0,0,1,.64-1.21,1.51,1.51,0,0,0,.33-.09.75.75,0,0,1-.13-.06A6.73,6.73,0,0,1,3,15.36a6.59,6.59,0,0,1-.1-1.09.89.89,0,0,1,1-1H11c.16-.5.31-1,.48-1.49A12.91,12.91,0,0,1,13.7,7.73a.5.5,0,0,1,.07-.08.89.89,0,0,0,.31-1c0-.12-.06-.21-.18-.25-.32-.1-.42-.33-.48-.65A1.2,1.2,0,0,1,13.51,5c.26-.54.48-1.09.72-1.64A.58.58,0,0,1,15.08,3l5.14,2.26a.56.56,0,0,1,.32.83C20,7.33,19.49,8.53,19,9.74a.58.58,0,0,1-.85.33L14.8,8.62l-.21-.09a12,12,0,0,0-1.14,4.76H15.7a.9.9,0,0,1,1,1,6.74,6.74,0,0,1-2.5,5.13l-.13.11.23,0a.89.89,0,0,1,.21,1.73l-.09.05ZM6.39,6.47a14.94,14.94,0,0,1,.67,3.81A1.25,1.25,0,0,0,8.2,11.54,1.19,1.19,0,0,0,9.39,10c-.34-1-.71-2-1.12-3A8.28,8.28,0,0,0,6.7,4.48a.59.59,0,0,1-.18-.54,1.5,1.5,0,0,0,0-.2.27.27,0,0,1,.19-.29.6.6,0,0,0,.45-.6.58.58,0,0,1,0-.18.67.67,0,0,0,0-.48C6.9,1.6,6.65,1,6.39.42A.58.58,0,0,0,5.53.08L.39,2.33a.57.57,0,0,0-.32.83l1.58,3.6a.58.58,0,0,0,.87.34L5.09,6l1-.41C6.17,5.87,6.29,6.17,6.39,6.47Z"/></g></g></svg>