<svg xmlns="http://www.w3.org/2000/svg" viewBox="0 0 36.62 21.21"><defs><style>.cls-1{fill:#181618;}</style></defs><g id="Layer_2" data-name="Layer 2"><g id="Layer_1-2" data-name="Layer 1"><path class="cls-1" d="M36.62,21.21h-1V18A17.16,17.16,0,0,0,18.31,1,17.17,17.17,0,0,0,1,18v3.18H0V18a2.57,2.57,0,0,1,0-.36,3.4,3.4,0,0,1,0-.45c0-.09,0-.19,0-.28v-.2c0-.23,0-.45,0-.68s.08-.51.12-.77l.06-.37c0-.21.07-.42.12-.62s.12-.5.19-.73l.1-.38c.05-.2.11-.41.17-.6l.25-.69.15-.37c.07-.2.15-.39.23-.58s.2-.43.31-.65L2,9.85l.28-.53c.11-.2.24-.4.37-.6l.24-.38c.1-.16.2-.33.31-.48s.27-.37.41-.55l.29-.37c.11-.16.23-.31.35-.46L4.73,6l.32-.34.39-.41L6,4.76l.37-.32.42-.37c.18-.15.37-.28.56-.42l.19-.14.22-.15A5,5,0,0,1,8.15,3l.59-.36L9,2.56l.24-.15c.15-.09.29-.18.45-.26l.64-.31.24-.11.24-.11.47-.22L12,1.14l.24-.08.26-.1L12.91.8c.25-.08.52-.14.78-.2l.25-.06.28-.07.43-.11c.33-.06.68-.11,1-.15l.18,0,.26,0,.35-.05a19.16,19.16,0,0,1,3.71,0l.35.05.26,0,.18,0c.34,0,.68.09,1,.15l.44.11.27.07.25.06c.26.06.53.12.78.2l.46.16.27.1.23.08.72.26.46.22.25.11.24.12c.22.09.43.19.64.3l.45.26.24.15.21.12.6.36c.15.1.29.21.43.32l.22.15.21.15c.18.14.37.27.54.41l.42.36.38.34c.17.15.34.29.5.45s.27.27.4.41L31.9,6c.16.16.31.33.46.5s.24.3.36.46l.29.37c.14.18.28.36.41.55s.21.32.31.49l.25.38c.12.2.25.39.36.59s.18.36.27.54l.19.37c.11.22.22.43.32.65s.15.38.22.56l.16.42c.08.22.17.44.24.66s.12.4.18.6l.1.39c.07.23.13.47.19.72s.08.43.11.64l.07.38c0,.25.08.49.11.74s0,.47,0,.7v.18l0,.28c0,.15,0,.3,0,.44v3.62Zm-9.82,0H12.34a4.51,4.51,0,0,1,4.54-4.33H20V15.67a5.63,5.63,0,0,1,11.26,0v5.54H29V18.06H26.8Zm-7.27-3.07H17.37v2.14h2.16Zm-7.91-.49a2.62,2.62,0,0,0,2.63-2.59A2.56,2.56,0,0,0,13,12.89l-.06,0v-.08s0,0,0-.07,0,0,0-.08a2,2,0,0,0-2-2h-.29v-.13a1.63,1.63,0,0,0-3.25,0,1.67,1.67,0,0,0,.12.62l.06.13-.14,0A2.59,2.59,0,0,0,5.58,13.8,2.46,2.46,0,0,0,5.87,15l0,.1-.09.06a1.75,1.75,0,0,0-.7,1.39,1.79,1.79,0,0,0,3.58,0,.26.26,0,0,1,0-.07v-.09l.09,0,.15,0,0,.22v4.7h.76V16.85l.21.17A2.6,2.6,0,0,0,11.62,17.65Z"/></g></g></svg>