<svg xmlns="http://www.w3.org/2000/svg" viewBox="0 0 20.68 20.68"><defs><style>.cls-1{fill:#181618;}</style></defs><g id="Layer_2" data-name="Layer 2"><g id="Layer_1-2" data-name="Layer 1"><path class="cls-1" d="M20.68,10.36a.22.22,0,0,1-.2.2l-.68.09a14.21,14.21,0,0,0-8.24,4l0,0-.12.08h0l-1.2.9v5H9.77V19.9L8.6,19.31h0l-.12-.05,0,0-3-2.36a16,16,0,0,0-5-2.7L.15,14A.23.23,0,0,1,0,13.83a.22.22,0,0,1,.15-.21l1.65-.55a5.33,5.33,0,0,1,4.81.73,5.37,5.37,0,0,1,2.21,4.33v.79l.95.48V11.48l-.92-.92H8.69A6,6,0,0,1,2.83,5.84L2.45,4.11a.21.21,0,0,1,.07-.21.2.2,0,0,1,.22,0l2.31.77a6,6,0,0,1,4.11,5.57v.05l.61.61v-1a2.58,2.58,0,0,1,1-2l0,0V6.94a10.72,10.72,0,0,1,.64-3.63L12.57.15A.23.23,0,0,1,12.81,0a.23.23,0,0,1,.2.21l.16,2.63a6.81,6.81,0,0,1-2,5.21l0,0-.12.08h0a2.11,2.11,0,0,0-.84,1.69v5.27l1-.73L12,12a4.41,4.41,0,0,1,5.66-2.84l2.9,1A.22.22,0,0,1,20.68,10.36Z"/></g></g></svg>