<svg xmlns="http://www.w3.org/2000/svg" viewBox="0 0 20.39 20.39"><defs><style>.cls-1{fill:#181618;}</style></defs><g id="Layer_2" data-name="Layer 2"><g id="Layer_1-2" data-name="Layer 1"><path class="cls-1" d="M18.6,16.66l1.74,3.73H16.06l.43-2.27L14.35,14ZM16.26,5.79h0l.65-.66L15.25,3.48l-.65.65h0c.28.26.57.53.85.81S16,5.51,16.26,5.79ZM14,13.8h0L9.57,16.66,7.82,20.39h8l.42-2.23Zm.34-5.74c2.57,2.73,5.25,6.16,6.07,7.22a16.62,16.62,0,0,0-4.15-9.13Zm-.19-1.8a.29.29,0,0,0,.21.09h0a.29.29,0,0,0,.22-.09.31.31,0,0,0,0-.44.35.35,0,0,0-.22-.08.32.32,0,0,0-.21.08A.31.31,0,0,0,14.13,6.26ZM14,8.06h0l-.81-.84-.83-.81-12,12A1.16,1.16,0,0,0,2,20l12-12Zm.27-3.92A16.72,16.72,0,0,0,5.11,0c1.06.81,4.48,3.49,7.21,6.06Z"/></g></g></svg>