<svg xmlns="http://www.w3.org/2000/svg" viewBox="0 0 19.72 14.04"><defs><style>.cls-1{fill:#181618;}</style></defs><g id="Layer_2" data-name="Layer 2"><g id="Layer_1-2" data-name="Layer 1"><path class="cls-1" d="M0,0H4.06V1.83H2.34V12.21H4.06V14H0Z"/><path class="cls-1" d="M8.67,10.82A1.43,1.43,0,0,1,8.2,9.76,1.4,1.4,0,0,1,8.67,8.7a1.77,1.77,0,0,1,1.26-.43,1.78,1.78,0,0,1,1.25.44,1.37,1.37,0,0,1,.48,1,1.4,1.4,0,0,1-.48,1.06,1.74,1.74,0,0,1-1.25.45A1.74,1.74,0,0,1,8.67,10.82ZM8.31.78h3.24L11,7.12H8.81Z"/><path class="cls-1" d="M15.67,14V12.21h1.71V1.83H15.67V0h4V14Z"/></g></g></svg>