<svg xmlns="http://www.w3.org/2000/svg" viewBox="0 0 21.88 18.65"><defs><style>.cls-1{fill:#181618;}</style></defs><g id="Layer_2" data-name="Layer 2"><g id="Layer_1-2" data-name="Layer 1"><path class="cls-1" d="M6.83.58,6.65.46h6.08a1,1,0,0,0-.07.34V2.64a1,1,0,0,0,.07.34H9.26L6.94.66h0L6.85.56ZM6.65,3a2,2,0,0,1-.19.12,1.53,1.53,0,0,1-.59.13l-.06,0a1.37,1.37,0,0,1-.28,0L8.7,6.33a4.73,4.73,0,0,1,2.24-.59,4.48,4.48,0,0,1,.82.09l-2.6-2.6L9,3.1,8.91,3l-1.6-1.6a1.49,1.49,0,0,1-.37,1.41A1.81,1.81,0,0,1,6.65,3ZM5,2.61H5a1.05,1.05,0,0,0,.11.07A1.22,1.22,0,0,0,5.81,3a.28.28,0,0,0,.13,0l.12,0a1.27,1.27,0,0,0,.7-.33A1.24,1.24,0,0,0,6.83.94,1.05,1.05,0,0,0,6.76.83,1.05,1.05,0,0,0,6.65.76,1.21,1.21,0,0,0,6.06.5l-.12,0H5.81A1.28,1.28,0,0,0,5,.83a1.24,1.24,0,0,0-.37.89,1.24,1.24,0,0,0,.3.78A1.05,1.05,0,0,0,5,2.61ZM12.6,6.32l-.25-.08-.26-.08a4.14,4.14,0,0,0-3.2.36l-.12.06-.11.06a4.44,4.44,0,0,0-2.19,3.71h9A4.49,4.49,0,0,0,12.6,6.32Zm8.49,4.28H.8a.8.8,0,0,0-.8.8v3.69a.8.8,0,0,0,.69.78,2.89,2.89,0,0,1,2.87-2.75H18.32a2.9,2.9,0,0,1,2.88,2.75.8.8,0,0,0,.68-.78V11.4A.8.8,0,0,0,21.09,10.6Zm-7.37,3.69h-.46l.07.11.06.1a2.83,2.83,0,0,1,.43,1.38h1.62a2.83,2.83,0,0,1,.57-1.6Zm-5.16.12.06-.11H5.88a2.91,2.91,0,0,1,.57,1.6H8.06a2.83,2.83,0,0,1,.43-1.38A.61.61,0,0,1,8.56,14.41ZM3.85,15.89a.3.3,0,0,0-.57,0,.26.26,0,0,0,0,.12h0a.29.29,0,0,0,0,.13.3.3,0,0,0,.57,0,.29.29,0,0,0,0-.13h0A.26.26,0,0,0,3.85,15.89Zm14.75,0a.3.3,0,0,0-.28-.21.32.32,0,0,0-.29.21S18,16,18,16h0s0,.09.05.13a.32.32,0,0,0,.29.21.3.3,0,0,0,.28-.21.29.29,0,0,0,0-.13h0A.26.26,0,0,0,18.6,15.89Zm-7.37,0a.32.32,0,0,0-.29-.21.3.3,0,0,0-.28.21.26.26,0,0,0-.05.12h0a.29.29,0,0,0,.05.13.3.3,0,0,0,.28.21.32.32,0,0,0,.29-.21s0-.08,0-.13h0C11.28,16,11.24,15.93,11.23,15.89Zm9.72,0S21,16,21,16h0s0,.09,0,.13a2.64,2.64,0,0,1-2.63,2.51H3.56A2.62,2.62,0,0,1,.94,16.14a.51.51,0,0,1,0-.13h0a.5.5,0,0,1,0-.12,2.63,2.63,0,0,1,2.62-2.52H18.32A2.65,2.65,0,0,1,21,15.89Zm-.66.12s0-.08,0-.12a2,2,0,0,0-3.92,0s0,.08,0,.12h0s0,.09,0,.13a2,2,0,0,0,3.92,0s0-.08,0-.13Zm-9.35,2a2,2,0,0,0,2-1.84s0-.08,0-.13h0s0-.08,0-.12a1.94,1.94,0,0,0-.33-1,.87.87,0,0,0-.08-.1l-.09-.11a1.94,1.94,0,0,0-2.92,0,.76.76,0,0,0-.08.11l-.09.1a2,2,0,0,0-.33,1S9,16,9,16H9s0,.09,0,.13A2,2,0,0,0,10.94,18ZM5.52,16.14s0-.08,0-.13h0s0-.08,0-.12a2,2,0,0,0-3.91,0s0,.08,0,.12h0s0,.09,0,.13a2,2,0,0,0,3.91,0ZM9.17,18,9,17.77a2.59,2.59,0,0,1-.68-1.63s0-.09,0-.13h0s0-.08,0-.12a2.56,2.56,0,0,1,.39-1.26l.08-.1a.39.39,0,0,1,.08-.1L9,14.25,9.17,14H5.33l.19.21a2.66,2.66,0,0,1,.67,1.64.5.5,0,0,1,0,.12h0a.59.59,0,0,1,0,.13,2.61,2.61,0,0,1-.67,1.63L5.33,18Zm7.38,0-.19-.21a2.63,2.63,0,0,1-.67-1.63s0-.09,0-.13h0s0-.08,0-.12a2.66,2.66,0,0,1,.67-1.64l.19-.21H12.71l.19.21.13.18a.86.86,0,0,1,.07.1.39.39,0,0,1,.08.1,2.56,2.56,0,0,1,.39,1.26s0,.08,0,.12h0s0,.09,0,.13a2.63,2.63,0,0,1-.67,1.63l-.19.21ZM13.08,3.1a.64.64,0,0,0,.1.13.77.77,0,0,0,.53.21h2.76a.8.8,0,0,0,.8-.8.34.34,0,1,0-.67,0v.13h-3V.67h3V.8a.34.34,0,0,0,.67,0,.8.8,0,0,0-.8-.8H13.71a.77.77,0,0,0-.53.21.64.64,0,0,0-.1.13A.54.54,0,0,0,13,.46a.77.77,0,0,0-.08.34V2.64A.81.81,0,0,0,13,3,.94.94,0,0,0,13.08,3.1Z"/></g></g></svg>