<svg xmlns="http://www.w3.org/2000/svg" viewBox="0 0 20.95 20.95"><defs><style>.cls-1{fill:#181618;}</style></defs><g id="Layer_2" data-name="Layer 2"><g id="Layer_1-2" data-name="Layer 1"><path class="cls-1" d="M20.83,7.77,18.56,5.5a2.53,2.53,0,0,1-.53.06,2.65,2.65,0,0,1-2.65-2.64,2.49,2.49,0,0,1,.07-.53L13.17.11a.38.38,0,0,0-.54,0L.11,12.63a.39.39,0,0,0,0,.54l2.28,2.28a2,2,0,0,1,.53-.07A2.64,2.64,0,0,1,5.56,18a2.55,2.55,0,0,1-.06.54l2.27,2.27a.39.39,0,0,0,.55,0L20.83,8.32A.36.36,0,0,0,21,8.05a.38.38,0,0,0-.12-.28ZM8.23,5.55l-.31-.31.48-.48.31.31Zm.31.31L9,5.38l.31.31-.48.48Zm.62.63L9.65,6l.31.32-.49.48Zm.63.62.48-.48.31.31-.48.48Zm.62.62.48-.48.31.31-.48.49Zm.62.63.49-.49.31.32-.49.48Zm.63.62.48-.48.31.31L12,9.29Zm.62.62.48-.48.31.31-.48.48Zm.62.63.49-.49.31.32-.49.48Zm.63.62.48-.48.31.31-.48.48Zm.62.62.48-.48.31.31-.48.49Zm.62.63.49-.49.31.32-.49.48Zm.94.93-.31-.31.48-.48.31.31Z"/></g></g></svg>